<?xml version="1.0" encoding="UTF-8" standalone="no"?>
<svg
   xmlns:dc="http://purl.org/dc/elements/1.1/"
   xmlns:cc="http://creativecommons.org/ns#"
   xmlns:rdf="http://www.w3.org/1999/02/22-rdf-syntax-ns#"
   xmlns:svg="http://www.w3.org/2000/svg"
   xmlns="http://www.w3.org/2000/svg"
   xmlns:sodipodi="http://sodipodi.sourceforge.net/DTD/sodipodi-0.dtd"
   xmlns:inkscape="http://www.inkscape.org/namespaces/inkscape"
   width="347.94528pt"
   height="465.60129pt"
   viewBox="0 0 347.94529 465.60129"
   version="1.1"
   id="svg4147"
   inkscape:version="0.91 r13725"
   sodipodi:docname="Shen.svg"
   inkscape:export-xdpi="48.169006"
   inkscape:export-ydpi="48.169006">
  <title
     id="title4203">Shen Logo</title>
  <metadata
     id="metadata4223">
    <rdf:RDF>
      <cc:Work
         rdf:about="">
        <dc:format>image/svg+xml</dc:format>
        <dc:type
           rdf:resource="http://purl.org/dc/dcmitype/StillImage" />
        <dc:title>Shen Logo</dc:title>
        <dc:creator>
          <cc:Agent>
            <dc:title>Malcolm Still (https://mstill.io/)</dc:title>
          </cc:Agent>
        </dc:creator>
        <dc:publisher>
          <cc:Agent>
            <dc:title>www.shenlanguage.com</dc:title>
          </cc:Agent>
        </dc:publisher>
      </cc:Work>
    </rdf:RDF>
  </metadata>
  <defs
     id="defs4221">
    <inkscape:path-effect
       effect="spiro"
       id="path-effect4849"
       is_visible="true" />
    <inkscape:path-effect
       effect="spiro"
       id="path-effect4845"
       is_visible="true" />
    <inkscape:path-effect
       effect="spiro"
       id="path-effect4826"
       is_visible="true" />
    <inkscape:path-effect
       effect="spiro"
       id="path-effect4822"
       is_visible="true" />
    <inkscape:path-effect
       effect="spiro"
       id="path-effect4818"
       is_visible="true" />
    <inkscape:path-effect
       effect="spiro"
       id="path-effect4814"
       is_visible="true" />
    <inkscape:path-effect
       effect="spiro"
       id="path-effect4849-4"
       is_visible="true" />
    <inkscape:path-effect
       effect="spiro"
       id="path-effect4849-41"
       is_visible="true" />
  </defs>
  <sodipodi:namedview
     pagecolor="#ffffff"
     bordercolor="#666666"
     borderopacity="1"
     objecttolerance="10"
     gridtolerance="10"
     guidetolerance="10"
     inkscape:pageopacity="0"
     inkscape:pageshadow="2"
     inkscape:window-width="1920"
     inkscape:window-height="1027"
     id="namedview4219"
     showgrid="false"
     inkscape:zoom="2.743117"
     inkscape:cx="204.99507"
     inkscape:cy="131.02845"
     inkscape:window-x="-8"
     inkscape:window-y="-8"
     inkscape:window-maximized="1"
     inkscape:current-layer="svg4147"
     fit-margin-top="12"
     fit-margin-left="12"
     fit-margin-right="12"
     fit-margin-bottom="12" />
  <g
     id="g4146"
     class="shen-logo-name">
    <path
       sodipodi:nodetypes="cscccccsccccc"
       d="m 29.309116,392.37406 c 6.46341,-6.82634 14.826149,-6.79455 20.682897,-3.24544 5.856747,3.54911 9.207503,10.61554 9.736953,15.81347 -2.59,1.02 -6.83985,1.70197 -9.54985,2.26197 -1.87136,-6.75132 -7.20185,-13.94112 -13.53,-9.58 -3.87,4.79 -0.3,11.71 4.17,14.75 7.61,6.22 17.38262,13.6869 18.44262,24.4869 -0.641785,13.68305 -9.210045,18.06698 -17.595306,16.40606 -8.385262,-1.66091 -16.587524,-9.36666 -16.497314,-19.86296 3.11,-0.95 6.26,-1.8 9.49,-2.23 0.32597,18.10645 21.36938,14.64356 13.15,1.16 -4.71,-6 -11.72,-9.58 -17,-15.01 -6.9,-6.06 -7.32212,-17.20212 -1.5,-24.95 z"
       id="path4160"
       inkscape:connector-curvature="0"
       style="opacity:1;fill:#000000" />
    <path
       sodipodi:nodetypes="ccccccccccccc"
       d="m 116.83911,388.29406 9.6,0 0,27.2 c 14.4836,0 0.82,0.14 15.2,0 l 0,-27.2 9.52,0 0,64 -9.52,0 0,-29.02 c -15.2,0 0,-0.24 -15.2,0 l 0,29.02 c -9.6,0 0,0 -9.6,0 z"
       id="path4162"
       inkscape:connector-curvature="0"
       style="opacity:1;fill:#000000" />
    <path
       sodipodi:nodetypes="ccccccccccccc"
       d="m 210.43911,388.29406 c 24.42,0 0,0 24,0 0,7.82 0,0 0,7.82 l -14.6104,0 0,19.76 10.2008,0 0,7.38 -10.82,0 0,21.6504 15.2296,0 0,7.3896 -24,0 z"
       id="path4164"
       inkscape:connector-curvature="0"
       style="opacity:1;fill:#000000" />
    <path
       sodipodi:nodetypes="ccccccccccc"
       d="m 289.63911,388.29406 8.0504,0 15.2896,35.44 0,-35.44 10.3904,0 0,64 -7.4304,0 -15.4696,-38.72 0,38.72 -10.8304,0 z"
       id="path4166"
       inkscape:connector-curvature="0"
       style="opacity:1;fill:#000000" />
  </g>
  <path
     style="opacity:1;fill:#444444;fill-opacity:1"
     d="m 36.269092,12.00536 c -1.558962,-0.03147 -2.996035,0.07448 -4.279687,0.348438 0.94,2.14 1.599063,4.720938 3.739063,6.010938 8.97935,6.33416 22.024324,8.05228 28.890624,19.218749 5.323111,8.311251 7.803047,19.884006 9.399999,30.440626 1.21,9.729997 0.509688,19.590317 0.479688,29.370309 -20.496129,5.2266 -24.120101,43.67856 -24.220311,66.65 -5.2111,13.73146 -16.677188,35.32137 -22.279688,53.85938 -2.65245,6.5078 -10.246182,27.51143 1.160938,41.47968 5.97,-0.19 11.95,-1.33937 17.35,-3.90937 16.27419,-10.43812 29.419925,-22.89927 49.749997,-29.85938 -1.46,6.96001 -3.441248,13.83969 -4.131248,20.92969 L 215.10971,296.03348 82.928467,260.46473 c -23.394549,-5.35502 -58.073962,2.07908 -68.189062,29.26875 -9.5164333,28.57715 6.975293,48.50368 30.739063,59.78751 3.303644,-7.07613 6.290582,-14.65424 8.41875,-20.76875 -2.244688,0.60032 -9.365395,3.84952 -11.55625,4.60156 l -0.448438,-0.70469 c 7.021178,-3.70635 13.257627,-6.31001 19.521875,-11.29531 -2.048931,-0.93964 -10.570887,-2.8056 -12.779687,-3.26563 l 0.04218,-0.85937 c 5.872732,0.70472 11.692714,1.89267 17.64375,1.91875 -2.362144,2.4535 -5.049466,4.54233 -7.803125,6.53906 1.487759,2.97552 2.954381,5.48323 3.776562,8.73281 l -1.098437,0.47344 c -0.97918,-1.1829 -2.893808,-6.04228 -3.670312,-7.2625 -3.767284,7.73427 -6.93504,15.41206 -9.515625,23.04844 5.003041,2.20239 10.285643,4.03521 15.6875,5.50156 3.3456,-5.54471 5.357213,-9.85231 7.885937,-14.45 -3.106023,-0.71898 -4.909437,-1.24404 -8.826562,-1.92188 2.871114,-6.77321 4.504729,-12.93479 6.31875,-20.07343 0.717779,1.25284 1.569825,1.75569 2.551562,2.53281 2.060013,0.85321 4.064781,2.21806 6.270317,2.75313 0.6994,-1.89217 1.341072,-3.91614 1.959376,-5.87813 -0.773112,-2.17616 -1.45296,-4.38028 -2.042192,-6.60625 1.59348,1.5767 3.561232,3.47636 4.004688,5.55781 l 0.03592,0.003 c -0.01552,0.0623 -0.0056,0.0242 -0.02032,0.0844 0.40304,2.27632 -1.714344,4.75091 -1.995312,7.22031 3.680248,0.70965 6.283272,1.60497 9.976568,1.70937 -3.158232,6.5122 -5.58864,11.82972 -8.525,18.45938 -2.44084,-1.86742 -4.296752,-2.2355 -7.814064,-3.13282 -2.029704,3.51392 -4.465271,8.66597 -6.40313,14.61094 16.711818,4.03286 34.205161,4.60058 47.725001,1.69531 30.8658,26.76783 86.1916,27.77211 118.57032,-0.51093 39.17152,8.78515 115.80686,-11.849 100.60937,-66.1 -8.51131,-29.84141 -40.42938,-37.23392 -69.83906,-31.75938 -8.96,-9.42 -9.05031,-22.98031 -12.52031,-34.77031 17.96551,4.87664 31.84273,17.69817 48.29062,28.59062 5.94,3.72 12.98875,5.51567 19.96875,4.80938 9.81243,-19.03282 4.10987,-28.41707 -1.72969,-46.15938 -7.40028,-15.91772 -15.24652,-31.8327 -21.02968,-49.89062 -1.4121,-22.95467 3.24028,-51.58289 -23.22032,-66.02969 -0.80064,-7.266128 0.32002,-15.52164 -0.0297,-23.790624 0.43,-9.409998 2.05969,-18.859999 5.42969,-27.699999 6.10393,-15.780669 18.20302,-18.86484 32.42031,-26.65 2.19,-1.579999 3.59,-3.919374 4.4,-6.459374 -17.72103,-0.935551 -34.79044,10.281545 -54,10.909374 -10.17828,-1.759329 -20.73858,-8.915297 -32.12968,-9.979687 2,4.69 5.80937,8.170313 8.55937,12.370313 4.4,5.78 7.1,12.62 9.7,19.35 3.44,9.75 1.86094,20.440312 -1.18906,30.070309 -3.36,6.64 -3.39,14.27032 -5.85,21.220312 -3.41,3.550008 -8.23031,5.099996 -12.22031,7.849996 -5.58476,1.97571 -11.62032,1.52876 -17.37032,2.01876 6.92587,-20.637284 8.10819,-54.24869 -15.24062,-60.67969 -3.93175,-1.64748 -6.47785,-7.216305 -11.33906,-8.671875 -6.79567,-2.11749 -13.94273,-2.003252 -21.56094,-0.107812 -5.83,2.09 -9.24938,8.280312 -15.40938,9.670312 -23.17153,5.4595 -18.25808,41.004165 -10.9,59.889065 -4.72836,0.18755 -10.95098,-0.87214 -16.22031,-1.01876 -3.99,-2.4 -7.90969,-4.94124 -12.17969,-6.831244 -4.7,-3.62 -4.96624,-14.979376 -7.45624,-19.809376 -3.250007,-6.909997 -2.344383,-9.93031 -3.384383,-17.47031 -1.15,-14.1 5.801253,-27.219062 13.531253,-38.489062 1.96,-3.29 5.67,-5.521251 6.55,-9.381251 C 108.69237,13.602868 97.286059,21.43568 86.698739,22.95369 77.777579,25.416769 51.33904,12.309402 36.269068,12.00518 Z m 24.728126,294.19688 c 2.479598,2.45349 5.885726,5.68894 3.001562,9.17344 -1.187596,-3.00163 -2.179379,-6.06742 -3.001562,-9.17344 z m 9.284375,18.06249 c -0.738802,1.73063 -1.428198,3.86988 -1.83125,5.44532 2.440447,0.63946 4.266268,1.52257 6.732812,2.13594 0.900488,-1.95758 1.196504,-2.62017 1.640624,-4.99219 -2.146616,-0.56946 -4.02344,-1.71587 -6.542186,-2.58907 z m 8.751562,3.25782 -1.687496,5.01562 c 1.697176,0.61064 3.054776,0.68649 5.2,1.51719 0,0 -0.04392,1.13203 -1.181256,1.8875 -1.513376,-0.1678 -3.925344,-1.1161 -4.917184,-1.14218 -0.63948,1.91841 -1.91692,3.45317 -2.034376,5.48906 2.375192,0.63946 3.941992,1.21466 6.317184,1.86718 1.957584,-4.16312 4.459848,-8.19572 5.856256,-12.59375 -2.269608,-1.11009 -4.956072,-1.02267 -7.553128,-2.04062 z m -11.220312,4.62813 c -0.535071,2.16637 -1.311597,3.30568 -1.8,5.61562 2.7493,1.11049 3.899557,1.21356 6.390624,1.70156 0.665576,-1.68351 1.369632,-3.56611 2.12656,-5.18438 -2.474848,-0.97681 -4.198434,-1.12792 -6.717184,-2.1328 z"
     id="path4150"
     inkscape:connector-curvature="0"
     class="shen-logo-monk" />
</svg>
